#!OML:ASF F:\VICON\USERDATA\INSTALL\rory3\rory3.ASF
:FULLY-SPECIFIED
:DEGREES
376
root 4.24872 16.8784 0.179916 12.1987 0.786304 -0.806641
lowerback 4.01109 -2.57598 5.68329
upperback 0.442842 -3.20554 -1.24577
thorax -2.17567 -1.65615 -4.27884
lowerneck -11.2901 3.91401 0.0776658
upperneck 49.0899 6.99245 -1.2569
head 22.539 2.40559 0.731969
rclavicle -4.28381e-014 5.56597e-015
rhumerus -21.831 16.9473 -62.7948
rradius 109.043
rwrist -51.4418
rhand 3.07934 -42.7984
rfingers 7.12502
rthumb 28.5364 -70.6409
lclavicle -4.28381e-014 5.56597e-015
lhumerus 19.3851 -1.75928 49.865
lradius 93.0261
lwrist 55.0604
lhand -21.4711 -22.124
lfingers 7.12502
lthumb 4.9195 7.79885
rfemur -56.5005 5.34744 18.6325
rtibia 75.9311
rfoot 13.8607 -5.22606
rtoes -18.3363
lfemur -31.5987 0.853152 -29.1359
ltibia 41.3025
lfoot -19.7913 10.9577
ltoes 9.21608
377
root 4.24183 16.8727 0.169828 12.1903 0.830577 -0.837882
lowerback 4.17538 -2.60348 5.68674
upperback 0.50582 -3.23339 -1.25037
thorax -2.20629 -1.66928 -4.27798
lowerneck -11.2835 4.01131 -0.0109123
upperneck 49.0072 7.11079 -1.11812
head 22.4382 2.45275 0.846889
rclavicle -4.73108e-014 -7.95139e-015
rhumerus -21.8674 17.4826 -63.2651
rradius 108.93
rwrist -51.7068
rhand 2.83293 -42.5436
rfingers 7.12502
rthumb 28.3009 -70.4254
lclavicle -4.73108e-014 -7.95139e-015
lhumerus 18.9871 -1.82529 50.4927
lradius 93.3327
lwrist 55.1306
lhand -21.3421 -19.8714
lfingers 7.12502
lthumb 5.04403 10.0485
rfemur -56.68 5.4876 18.6628
rtibia 76.0486
rfoot 14.1092 -5.18645
rtoes -19.3344
lfemur -31.7389 0.690895 -29.0728
ltibia 41.4828
lfoot -19.7626 11.2323
ltoes 9.01698
378
root 4.23354 16.8631 0.167239 12.1567 0.819912 -0.947001
lowerback 4.43746 -2.60526 5.76324
upperback 0.551288 -3.21662 -1.23148
thorax -2.30724 -1.66303 -4.29233
lowerneck -11.5124 4.12383 -0.191916
upperneck 49.03 7.27177 -0.904022
head 22.5128 2.49834 1.04104
rclavicle -2.88238e-015 6.36111e-015
rhumerus -21.9239 17.953 -63.7804
rradius 108.723
rwrist -52.1001
rhand 1.85676 -40.2793
rfingers 7.12502
rthumb 27.3676 -68.3122
lclavicle -2.88238e-015 6.36111e-015
lhumerus 18.6253 -1.97069 51.1281
lradius 93.4445
lwrist 55.0239
lhand -21.3207 -19.1397
lfingers 7.12502
lthumb 5.06468 10.7798
rfemur -56.8122 5.72488 18.7695
rtibia 76.1896
rfoot 14.2683 -5.37095
rtoes -19.8249
lfemur -31.806 0.520783 -28.9161
ltibia 41.6618
lfoot -19.6982 11.5529
ltoes 8.74369
379
root 4.22731 16.854 0.166654 12.1109 0.882542 -1.00807
lowerback 4.77567 -2.57993 5.91295
upperback 0.486478 -3.1546 -1.28931
thorax -2.56821 -1.64298 -4.42557
lowerneck -11.5664 4.19145 -0.29006
upperneck 49.1651 7.2834 -0.58257
head 22.615 2.51786 1.24326
rclavicle -2.16675e-014 8.74653e-015
rhumerus -22.384 18.237 -64.4647
rradius 108.494
rwrist -52.2715
rhand 0.671984 -37.4274
rfingers 7.12502
rthumb 26.2339 -65.634
lclavicle -2.16675e-014 8.74653e-015
lhumerus 18.1307 -2.51293 51.6092
lradius 93.2211
lwrist 54.6285
lhand -21.3494 -21.4801
lfingers 7.12502
lthumb 5.03701 8.44004
rfemur -56.8733 5.81264 18.8449
rtibia 76.3403
rfoot 14.4435 -5.49482
rtoes -19.6832
lfemur -31.8132 0.268325 -28.7929
ltibia 41.8106
lfoot -19.7105 11.7899
ltoes 8.79901
380
root 4.22137 16.8466 0.165113 12.074 0.874783 -0.863313
lowerback 4.84049 -2.5475 5.86826
upperback 0.574064 -3.11562 -1.44777
thorax -2.51545 -1.62041 -4.56834
lowerneck -11.5415 4.32304 -0.148642
upperneck 49.2811 7.38715 -0.422235
head 22.7071 2.59898 1.32846
rclavicle -3.3694e-014 1.59028e-015
rhumerus -22.6657 18.3686 -65.1995
rradius 108.296
rwrist -52.3836
rhand 0.919879 -38.7966
rfingers 7.12502
rthumb 26.4712 -66.9678
lclavicle -3.3694e-014 1.59028e-015
lhumerus 17.6984 -2.87025 51.9708
lradius 92.8531
lwrist 54.0846
lhand -21.2303 -24.2233
lfingers 7.12502
lthumb 5.15201 5.69408
rfemur -56.9532 5.85445 18.6859
rtibia 76.4986
rfoot 14.5858 -5.49367
rtoes -19.8675
lfemur -31.8088 0.0566396 -28.9285
ltibia 41.903
lfoot -19.7091 12.1482
ltoes 8.43833
381
root 4.213 16.841 0.166094 12.1168 0.792274 -0.634991
lowerback 4.64101 -2.48474 5.658
upperback 0.716209 -3.06151 -1.62297
thorax -2.24814 -1.58127 -4.64855
lowerneck -11.5007 4.43829 0.203067
upperneck 49.357 7.55517 -0.60542
head 22.8164 2.70395 1.19866
rclavicle 2.40529e-014 5.96354e-015
rhumerus -23.0279 18.4393 -65.9578
rradius 108.279
rwrist -52.5474
rhand 0.762202 -38.9958
rfingers 7.12502
rthumb 26.3202 -67.1896
lclavicle 2.40529e-014 5.96354e-015
lhumerus 17.454 -3.09157 52.3889
lradius 92.6156
lwrist 53.8052
lhand -21.1319 -25.1297
lfingers 7.12502
lthumb 5.24695 4.78535
rfemur -57.1214 5.93634 18.4234
rtibia 76.6464
rfoot 14.6647 -5.53959
rtoes -19.9445
lfemur -31.8735 -0.0923037 -29.1527
ltibia 41.9693
lfoot -19.7497 12.4105
ltoes 8.21274
382
root 4.20197 16.8405 0.166935 12.1732 0.781359 -0.535053
lowerback 4.63274 -2.39092 5.54024
upperback 0.650876 -2.94512 -1.75221
thorax -2.29777 -1.52612 -4.7249
lowerneck -11.2379 4.45207 0.480723
upperneck 49.5083 7.52611 -0.669308
head 22.8875 2.74072 1.09858
rclavicle -2.08724e-014 -5.1684e-015
rhumerus -23.7987 18.481 -66.7932
rradius 108.292
rwrist -52.5733
rhand 0.729831 -38.9954
rfingers 7.12502
rthumb 26.2892 -67.1939
lclavicle -2.08724e-014 -5.1684e-015
lhumerus 17.0243 -3.64949 52.8835
lradius 92.6915
lwrist 53.9825
lhand -21.3541 -24.3897
lfingers 7.12502
lthumb 5.0324 5.53057
rfemur -57.2536 6.06164 18.3126
rtibia 76.7366
rfoot 14.8597 -5.63018
rtoes -19.4391
lfemur -31.9748 -0.207301 -29.1889
ltibia 42.0388
lfoot -19.8757 12.3734
ltoes 8.65785
383
root 4.19037 16.8384 0.166153 12.164 0.776488 -0.66289
lowerback 4.61155 -2.18759 5.66498
upperback 0.594959 -2.67116 -1.86729
thorax -2.32107 -1.39348 -4.93676
lowerneck -10.8041 4.3799 0.832508
upperneck 49.6609 7.26436 -0.597098
head 22.8764 2.72937 1.00299
rclavicle 1.07344e-014 -5.56597e-015
rhumerus -24.7341 18.2146 -67.645
rradius 108.236
rwrist -52.4632
rhand 0.158222 -37.0607
rfingers 7.12502
rthumb 25.7419 -65.3396
lclavicle 1.07344e-014 -5.56597e-015
lhumerus 16.6186 -4.51224 53.3964
lradius 92.8596
lwrist 54.2086
lhand -21.5871 -23.8077
lfingers 7.12502
lthumb 4.8075 6.11771
rfemur -57.3119 6.32303 18.4522
rtibia 76.7871
rfoot 15.2277 -5.7095
rtoes -18.8577
lfemur -32.045 -0.268019 -28.9727
ltibia 42.1451
lfoot -19.9713 12.3311
ltoes 9.1169
